<svg xmlns="http://www.w3.org/2000/svg" width="45.486" height="45.483" viewBox="0 0 45.486 45.483">
  <path id="Caminho_1097" data-name="Caminho 1097" d="M40.985,20.566a4.5,4.5,0,0,0-1.333,8.8V39.894a2.94,2.94,0,1,1-5.88,0V35.467a5.605,5.605,0,0,0-11.21,0v4.427a2.94,2.94,0,1,1-5.88,0v-9.37a11.341,11.341,0,0,0,9.44-7.684L30.409,9.991a5.55,5.55,0,0,0-5.265-7.307h-3.2V.016H19.283v8h2.665V5.349h3.2a2.885,2.885,0,0,1,2.737,3.8L23.595,22A8.691,8.691,0,0,1,7.106,22L2.819,9.148a2.885,2.885,0,0,1,2.737-3.8h3.2V8.018h2.665v-8H8.753V2.684h-3.2A5.55,5.55,0,0,0,.291,9.991L4.578,22.84a11.34,11.34,0,0,0,9.44,7.684v9.37a5.6,5.6,0,0,0,11.21,0V35.467a2.94,2.94,0,0,1,5.88,0v4.427a5.6,5.6,0,0,0,11.21,0V29.367a4.5,4.5,0,0,0-1.333-8.8Zm0,6.337a1.836,1.836,0,1,1,1.836-1.836A1.838,1.838,0,0,1,40.985,26.9Z" transform="translate(0 -0.016)" fill="#fff"/>
</svg>
