<svg xmlns="http://www.w3.org/2000/svg" width="46.467" height="46.467" viewBox="0 0 46.467 46.467">
  <g id="star" transform="translate(0 0)">
    <path id="Caminho_1104" data-name="Caminho 1104" d="M26.319,46.467H20.148a1.817,1.817,0,0,1-1.815-1.815v-2.71a19.174,19.174,0,0,1-4.861-2.016l-1.918,1.918a1.817,1.817,0,0,1-2.567,0L4.623,37.48a1.817,1.817,0,0,1,0-2.567L6.54,33a19.173,19.173,0,0,1-2.016-4.861H1.815A1.817,1.817,0,0,1,0,26.319V20.148a1.817,1.817,0,0,1,1.815-1.815h2.7a19.173,19.173,0,0,1,2.014-4.87L4.623,11.554a1.817,1.817,0,0,1,0-2.567L8.987,4.623a1.817,1.817,0,0,1,2.567,0l1.9,1.9A19.173,19.173,0,0,1,18.333,4.5V1.815A1.817,1.817,0,0,1,20.148,0h6.171a1.817,1.817,0,0,1,1.815,1.815V4.5a19.182,19.182,0,0,1,4.884,2.022l1.895-1.895a1.817,1.817,0,0,1,2.567,0l4.364,4.364a1.817,1.817,0,0,1,0,2.567L39.95,13.448a19.182,19.182,0,0,1,2.022,4.884h2.68a1.817,1.817,0,0,1,1.815,1.815v6.171a1.817,1.817,0,0,1-1.815,1.815H41.965a19.186,19.186,0,0,1-2.024,4.876l1.9,1.9a1.817,1.817,0,0,1,0,2.567L37.48,41.844a1.817,1.817,0,0,1-2.567,0L33,39.935a19.183,19.183,0,0,1-4.87,2.014v2.7a1.817,1.817,0,0,1-1.815,1.815Zm-12.984-8.6a.906.906,0,0,1,.488.143,17.378,17.378,0,0,0,5.613,2.328.908.908,0,0,1,.712.886v3.424h6.171V41.233a.907.907,0,0,1,.713-.886,17.391,17.391,0,0,0,5.621-2.324.908.908,0,0,1,1.129.124L36.2,40.56,40.56,36.2l-2.409-2.409a.908.908,0,0,1-.123-1.131,17.389,17.389,0,0,0,2.336-5.626.907.907,0,0,1,.886-.712h3.4V20.148h-3.4a.907.907,0,0,1-.886-.713A17.379,17.379,0,0,0,38.037,13.8a.908.908,0,0,1,.123-1.13l2.4-2.4L36.2,5.906l-2.4,2.4a.908.908,0,0,1-1.13.123A17.387,17.387,0,0,0,27.032,6.1a.907.907,0,0,1-.713-.886v-3.4H20.148v3.4a.908.908,0,0,1-.711.886A17.387,17.387,0,0,0,13.81,8.438a.907.907,0,0,1-1.131-.123L10.27,5.906,5.907,10.27l2.414,2.415a.907.907,0,0,1,.124,1.129A17.391,17.391,0,0,0,6.12,19.435a.907.907,0,0,1-.886.713H1.815v6.171H5.239a.908.908,0,0,1,.886.712,17.382,17.382,0,0,0,2.328,5.613.908.908,0,0,1-.123,1.13L5.907,36.2l4.364,4.364,2.423-2.423a.908.908,0,0,1,.642-.266Zm0,0" transform="translate(0 0)" fill="#fff"/>
    <path id="Caminho_1105" data-name="Caminho 1105" d="M123.312,136.512a13.248,13.248,0,1,1,6.477-24.807.907.907,0,1,1-.888,1.583,11.435,11.435,0,1,0,4.644,4.87.908.908,0,1,1,1.624-.811,13.246,13.246,0,0,1-11.857,19.165Zm0,0" transform="translate(-100.078 -100.034)" fill="#fff"/>
    <path id="Caminho_1106" data-name="Caminho 1106" d="M345.26,153.827a.908.908,0,1,1,.642-.266A.913.913,0,0,1,345.26,153.827Zm0,0" transform="translate(-313.1 -138.216)" fill="#fff"/>
    <path id="Caminho_1107" data-name="Caminho 1107" d="M175.3,195.7a.908.908,0,0,1-.642-.266l-5.739-5.74a.907.907,0,0,1,0-1.283l3.255-3.256a.908.908,0,0,1,1.284,0L175.3,187l4.4-4.4a.907.907,0,0,1,1.283,0l3.256,3.256a.908.908,0,0,1,0,1.283l-8.3,8.3A.909.909,0,0,1,175.3,195.7Zm-4.456-6.647,4.456,4.456,7.018-7.017-1.972-1.972-4.4,4.4a.908.908,0,0,1-1.284,0l-1.842-1.842Zm0,0" transform="translate(-153.343 -165.785)" fill="#fff"/>
  </g>
</svg>
