<svg id="Grupo_1335" data-name="Grupo 1335" xmlns="http://www.w3.org/2000/svg" width="50" height="50" viewBox="0 0 50 50">
  <path id="Caminho_1108" data-name="Caminho 1108" d="M24.516,29.65c-.816-7.91,2.936-15.075,9.159-19.627,2.426-1.776,6.053-.255,6.053,2.552h0A3.27,3.27,0,0,1,38.3,15.2,15.132,15.132,0,0,0,31.884,29.17c.839,7.338,7.368,13.279,15.507,14.1,10.622,1.072,19.645-6.42,19.645-15.769a15.3,15.3,0,0,0-6.529-12.309,3.254,3.254,0,0,1-1.417-2.613h0c0-2.776,3.571-4.348,5.974-2.613A21.73,21.73,0,0,1,74.4,27.5c0,12.952-12.22,23.393-26.832,22.444C35.489,49.175,25.638,40.509,24.516,29.65ZM49.4,0a3.515,3.515,0,0,0-3.684,3.317V18.6a3.7,3.7,0,0,0,7.368,0V3.317A3.515,3.515,0,0,0,49.4,0Z" transform="translate(-24.405)" fill="#fff"/>
</svg>
