<svg xmlns="http://www.w3.org/2000/svg" width="26.495" height="37.625" viewBox="0 0 26.495 37.625">
  <g id="mouse" transform="translate(-75.726)" opacity="0.89">
    <g id="Grupo_1345" data-name="Grupo 1345" transform="translate(75.726)">
      <g id="Grupo_1344" data-name="Grupo 1344" transform="translate(0)">
        <path id="Caminho_1109" data-name="Caminho 1109" d="M88.974,0A13.368,13.368,0,0,0,75.726,13.455V24.17a13.249,13.249,0,1,0,26.5.041V13.455A13.368,13.368,0,0,0,88.974,0ZM99.729,24.211a10.757,10.757,0,1,1-21.512-.042V13.455a10.758,10.758,0,1,1,21.512,0Z" transform="translate(-75.726)" fill="#fff"/>
      </g>
    </g>
    <g id="Grupo_1347" data-name="Grupo 1347" transform="translate(87.728 10.299)">
      <g id="Grupo_1346" data-name="Grupo 1346" transform="translate(0)">
        <path id="Caminho_1110" data-name="Caminho 1110" d="M240.292,140.15a1.246,1.246,0,0,0-1.246,1.246v4.361a1.246,1.246,0,0,0,2.492,0V141.4A1.246,1.246,0,0,0,240.292,140.15Z" transform="translate(-239.046 -140.15)" fill="#fff"/>
      </g>
    </g>
  </g>
</svg>
