<svg xmlns="http://www.w3.org/2000/svg" width="37.728" height="44.572" viewBox="0 0 37.728 44.572">
  <path id="Caminho_1103" data-name="Caminho 1103" d="M58.75,43.695a.878.878,0,1,1-.878-.877A.879.879,0,0,1,58.75,43.695Zm-19.312,0v-1.11a11.786,11.786,0,0,1,5.7-10.081,29.231,29.231,0,0,1,7.544-3.184V27.906a8.07,8.07,0,0,1-1.2-1.328,21.005,21.005,0,0,1-2.555-4.7,1.839,1.839,0,0,1-1.411-1.046c-.265-.561-2.105-3.965-2.387-4.571a2.647,2.647,0,0,1,1.4-3.541,2.792,2.792,0,0,1,.606-.176A10.143,10.143,0,0,1,56.987,0a3.753,3.753,0,0,1,2.619,1.058.019.019,0,0,0,.027,0A3.753,3.753,0,0,1,62.251,0a6.9,6.9,0,0,1,6.888,6.888v1.6a14.765,14.765,0,0,1-.562,4.043,2.449,2.449,0,0,1,.62.179,2.649,2.649,0,0,1,1.4,3.541c-.3.6-2.122,4.009-2.387,4.571a1.84,1.84,0,0,1-1.41,1.046,21.007,21.007,0,0,1-2.559,4.711,8.079,8.079,0,0,1-1.2,1.33v1.413A29.232,29.232,0,0,1,70.585,32.5a11.786,11.786,0,0,1,5.7,10.081v1.11a.877.877,0,0,1-.877.877H61.82a.878.878,0,0,1-.875-.936.9.9,0,0,1,.906-.819H74.535a10.173,10.173,0,0,0-4.853-8.808,27.464,27.464,0,0,0-6.742-2.9,5.177,5.177,0,0,1-10.152,0,27.471,27.471,0,0,0-6.742,2.9,10.05,10.05,0,0,0-4.853,8.808H53.925a.878.878,0,0,1,.875.938.9.9,0,0,1-.906.816H40.316A.877.877,0,0,1,39.439,43.695Zm9.172-33.426a4.543,4.543,0,0,1,3.375-1.582,4.473,4.473,0,0,1,2.828,1.008,4.133,4.133,0,0,0,6.735-3.218.877.877,0,0,1,1.754,0,2.819,2.819,0,0,0,1.574,2.536,5.8,5.8,0,0,1,2.279,1.9,13.063,13.063,0,0,0,.227-2.43v-1.6a5.139,5.139,0,0,0-5.133-5.133,2.007,2.007,0,0,0-1.4.565,1.768,1.768,0,0,1-2.464,0,2.006,2.006,0,0,0-1.4-.565A8.358,8.358,0,0,0,48.611,10.269ZM61.286,29.075a7.91,7.91,0,0,1-6.844,0v1.02a3.422,3.422,0,0,0,6.844,0Zm1.536-3.525a19.213,19.213,0,0,0,2.562-4.906.874.874,0,0,1,1.205-.5c.326-.693,2.159-4.083,2.424-4.644a.908.908,0,0,0-.5-1.176.946.946,0,0,0-.8.04.882.882,0,0,1-1.288-.652A3.963,3.963,0,0,0,64.133,10.6a4.4,4.4,0,0,1-1.588-1.261,6.809,6.809,0,0,1-.983,1.308,5.851,5.851,0,0,1-7.857.406,2.7,2.7,0,0,0-3.6.183,2.871,2.871,0,0,0-.838,2v.345a.879.879,0,0,1-1.271.784.949.949,0,0,0-.774-.026.893.893,0,0,0-.5,1.176c.263.563,2.137,4,2.414,4.631a.9.9,0,0,1,1.216.512,19.241,19.241,0,0,0,2.559,4.9,6.1,6.1,0,0,0,9.915,0ZM76.728,5.264V.877A.877.877,0,0,0,75.851,0H71.464a.877.877,0,0,0,0,1.755h3.51v3.51a.877.877,0,1,0,1.755,0Zm0,23.953V24.831a.877.877,0,1,0-1.755,0v3.51h-3.51a.877.877,0,0,0,0,1.755h4.387A.877.877,0,0,0,76.728,29.218ZM40.755,5.264V1.755h3.51a.877.877,0,0,0,0-1.755H39.877A.877.877,0,0,0,39,.877V5.264a.877.877,0,1,0,1.755,0Zm4.387,23.953a.877.877,0,0,0-.877-.877h-3.51v-3.51a.877.877,0,1,0-1.755,0v4.387a.877.877,0,0,0,.877.877h4.387A.877.877,0,0,0,45.142,29.218Z" transform="translate(-39 0)" fill="#fff"/>
</svg>
