<svg id="Grupo_1334" data-name="Grupo 1334" xmlns="http://www.w3.org/2000/svg" width="49.198" height="57.572" viewBox="0 0 49.198 57.572">
  <path id="Caminho_1098" data-name="Caminho 1098" d="M165.525,313.775l-1.757-1.757a.549.549,0,0,0-.776,0l-2.36,2.36-2.36-2.36a.549.549,0,0,0-.776,0l-1.757,1.757a.549.549,0,0,0,0,.776l2.36,2.36-2.36,2.36a.549.549,0,0,0,0,.776L157.5,321.8a.549.549,0,0,0,.776,0l2.36-2.36,2.36,2.36a.549.549,0,0,0,.776,0l1.757-1.757a.549.549,0,0,0,0-.776l-2.36-2.36,2.36-2.36A.549.549,0,0,0,165.525,313.775Z" transform="translate(-150.336 -292.958)" fill="#fff"/>
  <path id="Caminho_1099" data-name="Caminho 1099" d="M367.959,193.093l-1.757-1.757a.549.549,0,0,0-.776,0l-2.36,2.36-2.36-2.36a.549.549,0,0,0-.776,0l-1.757,1.757a.549.549,0,0,0,0,.776l2.36,2.36-2.36,2.36a.549.549,0,0,0,0,.776l1.757,1.757a.549.549,0,0,0,.776,0l2.36-2.36,2.36,2.36a.549.549,0,0,0,.776,0l1.757-1.757a.549.549,0,0,0,0-.776l-2.36-2.36,2.36-2.36A.549.549,0,0,0,367.959,193.093Z" transform="translate(-340.503 -179.59)" fill="#fff"/>
  <path id="Caminho_1100" data-name="Caminho 1100" d="M568.843,441.972l-1.757-1.757a.549.549,0,0,0-.776,0l-2.36,2.36-2.36-2.36a.549.549,0,0,0-.776,0l-1.757,1.757a.549.549,0,0,0,0,.776l2.36,2.36-2.36,2.36a.549.549,0,0,0,0,.776L560.813,450a.549.549,0,0,0,.776,0l2.36-2.36,2.36,2.36a.549.549,0,0,0,.776,0l1.757-1.757a.549.549,0,0,0,0-.776l-2.36-2.36,2.36-2.36A.549.549,0,0,0,568.843,441.972Z" transform="translate(-529.213 -413.386)" fill="#fff"/>
  <circle id="Elipse_31" data-name="Elipse 31" cx="5.241" cy="5.241" r="5.241" transform="translate(25.223 46.988)" fill="#fff"/>
  <circle id="Elipse_32" data-name="Elipse 32" cx="5.241" cy="5.241" r="5.241" transform="translate(10.108 47.089)" fill="#fff"/>
  <circle id="Elipse_33" data-name="Elipse 33" cx="5.241" cy="5.241" r="5.241" transform="translate(0 35.888)" fill="#fff"/>
  <circle id="Elipse_34" data-name="Elipse 34" cx="5.241" cy="5.241" r="5.241" transform="translate(29.683)" fill="#fff"/>
  <path id="Caminho_1101" data-name="Caminho 1101" d="M383.933,304.882a41.435,41.435,0,0,1,6.4-7.154l.75.935a.32.32,0,0,0,.6-.092l1.532-3.939c.121-.312-.048-.524-.379-.473l-4.177.642c-.331.051-.429.3-.22.565l.756.942a43.262,43.262,0,0,0-6.781,7.582,38.293,38.293,0,0,0-4.027,7.354,27.023,27.023,0,0,0-2.034,7.5.908.908,0,0,0,.837.973l.07,0a.91.91,0,0,0,.905-.839,26.567,26.567,0,0,1,1.936-7.023A36.529,36.529,0,0,1,383.933,304.882Z" transform="translate(-357.725 -276.326)" fill="#fff"/>
  <path id="Caminho_1102" data-name="Caminho 1102" d="M709.28,231a.908.908,0,0,0,1.042-.754,27.025,27.025,0,0,0-.244-7.766,38.289,38.289,0,0,0-2.216-8.087,43.262,43.262,0,0,0-4.841-8.946l.953-.741a.32.32,0,0,0-.083-.6l-3.915-1.591c-.31-.126-.524.041-.479.372l.579,4.186c.046.332.3.434.561.228l.946-.736a41.447,41.447,0,0,1,4.566,8.44,36.514,36.514,0,0,1,2.119,7.672,26.563,26.563,0,0,1,.258,7.281A.909.909,0,0,0,709.28,231Z" transform="translate(-661.288 -190.208)" fill="#fff"/>
</svg>
