<svg xmlns="http://www.w3.org/2000/svg" width="37.596" height="41.756" viewBox="0 0 37.596 41.756">
  <path id="Caminho_1108" data-name="Caminho 1108" d="M24.488,24.761A18.771,18.771,0,0,1,31.375,8.37,2.781,2.781,0,0,1,35.927,10.5h0a2.821,2.821,0,0,1-1.074,2.191,13.253,13.253,0,1,0,16.7-.009A2.809,2.809,0,0,1,50.485,10.5h0a2.773,2.773,0,0,1,4.492-2.182A18.794,18.794,0,1,1,24.488,24.761ZM43.2,0a2.77,2.77,0,0,0-2.77,2.77V15.53a2.77,2.77,0,0,0,5.54,0V2.77A2.77,2.77,0,0,0,43.2,0Z" transform="translate(-24.405)" fill="#fff"/>
</svg>
